<?xml version="1.0" encoding="UTF-8" standalone="no" ?>
<!DOCTYPE svg PUBLIC "-//W3C//DTD SVG 1.1//EN" "http://www.w3.org/Graphics/SVG/1.1/DTD/svg11.dtd">
<svg xmlns="http://www.w3.org/2000/svg" xmlns:xlink="http://www.w3.org/1999/xlink" version="1.1" width="240" height="480" viewBox="0 0 240 480" xml:space="preserve">
<desc>Created with Fabric.js 4.6.0</desc>
<defs>
</defs>
<g transform="matrix(1 0 0 1 106.6 130.47)" id="kT8VSRgD6kASQVFK49bkv"  >
<path style="stroke: rgb(0,0,0); stroke-width: 0.5; stroke-dasharray: none; stroke-linecap: butt; stroke-dashoffset: 0; stroke-linejoin: miter; stroke-miterlimit: 4; fill: rgb(16,222,255); fill-rule: nonzero; opacity: 1;" vector-effect="non-scaling-stroke"  transform=" translate(0, 0)" d="M -33.5847 2.39658 L 12.977350000000001 -83.88017 L 33.5847 8.30919999999999 L -9.618940000000002 83.88016999999999 z" stroke-linecap="round" />
</g>
<g transform="matrix(1 0 0 1 144.92 126.11)" id="FwXLRLpnie9oyxYxQc7ql"  >
<path style="stroke: rgb(0,0,0); stroke-width: 1; stroke-dasharray: none; stroke-linecap: butt; stroke-dashoffset: 0; stroke-linejoin: miter; stroke-miterlimit: 4; fill: rgb(19,99,129); fill-rule: nonzero; opacity: 1;" vector-effect="non-scaling-stroke"  transform=" translate(0, 0)" d="M -25.33524 -80.02175 L 20.54208 -5.5702500000000015 L 25.33523 80.02176 L -4.977890000000002 11.548150000000007 L -25.335240000000002 -76.78281" stroke-linecap="round" />
</g>
<g transform="matrix(1 0 0 1 133.87 275.29)" id="zzlhdFFq1ojxweWd7U1Qw"  >
<path style="stroke: rgb(0,0,0); stroke-width: 0.5; stroke-dasharray: none; stroke-linecap: butt; stroke-dashoffset: 0; stroke-linejoin: miter; stroke-miterlimit: 4; fill: rgb(22,210,217); fill-rule: nonzero; opacity: 1;" vector-effect="non-scaling-stroke"  transform=" translate(0, 0)" d="M 6.07026 -136.26248 L -36.88338 -60.44151000000001 L -8.124460000000003 136.26247999999998 L 36.88338999999999 -68.65835000000001 z" stroke-linecap="round" />
</g>
<g transform="matrix(1 0 0 1 148.59 309.34)" id="4JxaTk-defhnTmS10-_mw"  >
<path style="stroke: rgb(0,0,0); stroke-width: 1; stroke-dasharray: none; stroke-linecap: butt; stroke-dashoffset: 0; stroke-linejoin: miter; stroke-miterlimit: 4; fill: rgb(31,150,203); fill-rule: nonzero; opacity: 1;" vector-effect="non-scaling-stroke"  transform=" translate(0, 0)" d="M -22.16155 102.71041 L 22.16156 -102.71042 L -8.65156 98.10199 z" stroke-linecap="round" />
</g>
<g transform="matrix(1 0 0 1 130.75 419.87)" id="JlitnK5h5EaWOIQb8gL33"  >
<path style="stroke: rgb(0,0,0); stroke-width: 0.5; stroke-dasharray: none; stroke-linecap: butt; stroke-dashoffset: 0; stroke-linejoin: miter; stroke-miterlimit: 4; fill: rgb(11,98,143); fill-rule: nonzero; opacity: 1;" vector-effect="non-scaling-stroke"  transform=" translate(0, 0)" d="M -4.82038 -7.3144 L -9.68961 12.63863 L 9.68961 -12.638640000000002 z" stroke-linecap="round" />
</g>
<g transform="matrix(1 0 0 1 112.66 420.58)" id="P6vG_fhZb2GjfiebJ8cWS"  >
<path style="stroke: rgb(0,0,0); stroke-width: 1; stroke-dasharray: none; stroke-linecap: butt; stroke-dashoffset: 0; stroke-linejoin: miter; stroke-miterlimit: 4; fill: rgb(23,115,134); fill-rule: nonzero; opacity: 1;" vector-effect="non-scaling-stroke"  transform=" translate(0, 0)" d="M -13.27179 -11.42857 L 13.27179 -8.024460000000001 L 8.13297 11.428569999999997 z" stroke-linecap="round" />
</g>
<g transform="matrix(1 0 0 1 111.21 313.7)" id="LnKN_oeH9hUtiCbfM9em9"  >
<path style="stroke: rgb(0,0,0); stroke-width: 0.5; stroke-dasharray: none; stroke-linecap: butt; stroke-dashoffset: 0; stroke-linejoin: miter; stroke-miterlimit: 4; fill: rgb(20,255,255); fill-rule: nonzero; opacity: 1;" vector-effect="non-scaling-stroke"  transform=" translate(0, 0)" d="M -12.32176 94.94789 L -14.721829999999999 -98.85199 L 14.721820000000003 98.852 z" stroke-linecap="round" />
</g>
<g transform="matrix(1 0 0 1 84.07 270.91)" id="uaULhZMWQKlI5O19t6dzw"  >
<path style="stroke: rgb(0,0,0); stroke-width: 1; stroke-dasharray: none; stroke-linecap: butt; stroke-dashoffset: 0; stroke-linejoin: miter; stroke-miterlimit: 4; fill: rgb(18,138,157); fill-rule: nonzero; opacity: 1;" vector-effect="non-scaling-stroke"  transform=" translate(0, 0)" d="M -11.29781 -137.73651 L -14.81803 -56.06336 L 14.81802 137.73651999999998 L 12.417950000000001 -56.06336000000002 z" stroke-linecap="round" />
</g>
</svg>