<?xml version="1.0" encoding="UTF-8" standalone="no"?>
<!DOCTYPE svg PUBLIC "-//W3C//DTD SVG 1.1//EN" "http://www.w3.org/Graphics/SVG/1.1/DTD/svg11.dtd">
<svg version="1.1" xmlns="http://www.w3.org/2000/svg" xmlns:xlink="http://www.w3.org/1999/xlink" preserveAspectRatio="xMidYMid meet" viewBox="0 0 480 480" width="480" height="480"><defs><path d="M264.32 139.09L221.58 219.76L198.13 136.56L244.47 49.41L264.32 139.09Z" id="b2w59v58CK"></path><path d="M294.97 210.47L250.89 418.53L221.34 219.76L264.32 138.27L294.97 210.47Z" id="b55lPjb8G"></path><path d="M264.32 138.27L294.97 209.82L289.6 122.23L244.48 51.75L264.32 138.27Z" id="a3UJaiWCi1"></path><path d="M221.34 219.76L224.43 410.25L194.45 217.24L198.12 134.74L221.34 219.76Z" id="b1koVzywuN"></path><path d="M250.89 418.53L224.44 412.24L221.34 219.76L250.89 418.53Z" id="b6NvuyxnC"></path><path d="M250.88 416.96L246.21 436.73L224.44 412.24L250.88 416.96Z" id="b2gOXgOxUE"></path><path d="M250.88 416.96L294.97 209.82L265.53 408.84L250.88 416.96Z" id="b6423jbp0"></path><path d="M265.54 410.07L250.88 416.96L246.21 436.73L265.54 410.07Z" id="d1EtyVGeWB"></path></defs><g><g><g><use xlink:href="#b2w59v58CK" opacity="1" fill="#a9f9b1" fill-opacity="1"></use><g><use xlink:href="#b2w59v58CK" opacity="1" fill-opacity="0" stroke="#000000" stroke-width="1" stroke-opacity="1"></use></g></g><g><use xlink:href="#b55lPjb8G" opacity="1" fill="#04fc83" fill-opacity="1"></use><g><use xlink:href="#b55lPjb8G" opacity="1" fill-opacity="0" stroke="#000000" stroke-width="1" stroke-opacity="1"></use></g></g><g><use xlink:href="#a3UJaiWCi1" opacity="1" fill="#0ab60a" fill-opacity="1"></use><g><use xlink:href="#a3UJaiWCi1" opacity="1" fill-opacity="0" stroke="#000000" stroke-width="1" stroke-opacity="1"></use></g></g><g><use xlink:href="#b1koVzywuN" opacity="1" fill="#0dae3b" fill-opacity="1"></use><g><use xlink:href="#b1koVzywuN" opacity="1" fill-opacity="0" stroke="#000000" stroke-width="1" stroke-opacity="1"></use></g></g><g><use xlink:href="#b6NvuyxnC" opacity="1" fill="#20f931" fill-opacity="1"></use><g><use xlink:href="#b6NvuyxnC" opacity="1" fill-opacity="0" stroke="#000000" stroke-width="1" stroke-opacity="1"></use></g></g><g><use xlink:href="#b2gOXgOxUE" opacity="1" fill="#1f861f" fill-opacity="1"></use><g><use xlink:href="#b2gOXgOxUE" opacity="1" fill-opacity="0" stroke="#000000" stroke-width="1" stroke-opacity="1"></use></g></g><g><use xlink:href="#b6423jbp0" opacity="1" fill="#1e7a13" fill-opacity="1"></use><g><use xlink:href="#b6423jbp0" opacity="1" fill-opacity="0" stroke="#000000" stroke-width="1" stroke-opacity="1"></use></g></g><g><use xlink:href="#d1EtyVGeWB" opacity="1" fill="#0f6026" fill-opacity="1"></use><g><use xlink:href="#d1EtyVGeWB" opacity="1" fill-opacity="0" stroke="#000000" stroke-width="1" stroke-opacity="1"></use></g></g></g></g></svg>